#!OML:ASF H:\Male1\Project 1\Capture day 1\Session 1\Male1.ASF
:FULLY-SPECIFIED
:DEGREES
503
root -7.37045 15.2245 -2.68635 6.97698 -76.593 -8.56906
lowerback 10.7007 3.27626 0.409052
upperback 8.56801 4.03014 -1.0451
thorax 3.06958 1.92333 -1.63134
lowerneck -7.75343 -1.52509 3.15222
upperneck 12.9909 -3.76209 7.9114
head 5.30802 -1.23275 1.68451
rclavicle 1.14102e-013 -5.28767e-014
rhumerus -28.98 48.2688 -102.59
rradius 70.316
rwrist -68.7761
rhand -24.4845 -26.5472
rfingers 7.12502
rthumb 2.00948 -56.5175
lclavicle 1.14102e-013 -5.28767e-014
lhumerus -24.5309 -0.0769562 79.0674
lradius 18.3308
lwrist -8.94778
lhand -18.3875 19.5573
lfingers 7.12502
lthumb 7.89631 49.3899
rfemur -11.6854 8.61013 23.8486
rtibia 32.8079
rfoot -20.8012 -19.8293
rtoes -36.482
lfemur -12.3146 -13.6267 -19.1433
ltibia 31.0494
lfoot -19.8758 20.1145
ltoes -9.16923
504
root -7.38013 15.2341 -2.65294 6.94536 -77.2185 -8.57768
lowerback 10.5613 3.23303 0.117541
upperback 8.49562 3.95537 -1.1955
thorax 3.05593 1.8766 -1.61405
lowerneck -7.8097 -1.32828 3.19613
upperneck 12.9816 -3.47707 7.73426
head 5.30291 -1.10203 1.64155
rclavicle -3.00165e-014 1.90833e-014
rhumerus -29.0759 48.2017 -102.515
rradius 70.0966
rwrist -67.8792
rhand -23.6699 -26.1703
rfingers 7.12502
rthumb 2.79618 -56.1317
lclavicle -3.00165e-014 1.90833e-014
lhumerus -24.8084 2.94788 77.3501
lradius 16.7322
lwrist -13.1034
lhand -17.9409 19.3927
lfingers 7.12502
lthumb 8.32734 49.2086
rfemur -11.9921 8.04343 23.7139
rtibia 33.5341
rfoot -21.3408 -19.8819
rtoes -36.6977
lfemur -11.7854 -13.6781 -19.4209
ltibia 30.58
lfoot -20.1368 20.6567
ltoes -8.36023
505
root -7.38946 15.2442 -2.62223 7.02179 -77.822 -8.66865
lowerback 10.3964 3.16543 -0.178366
upperback 8.45397 3.84764 -1.30949
thorax 3.08552 1.81177 -1.55201
lowerneck -8.01292 -1.11682 3.21885
upperneck 13.0098 -3.17351 7.51362
head 5.33422 -0.960457 1.58916
rclavicle -1.35174e-014 -5.96354e-015
rhumerus -29.093 48.1539 -102.386
rradius 69.708
rwrist -66.7612
rhand -22.9119 -25.6591
rfingers 7.12502
rthumb 3.52822 -55.6096
lclavicle -1.35174e-014 -5.96354e-015
lhumerus -25.2741 4.82552 76.0399
lradius 15.9861
lwrist -15.7719
lhand -17.5933 19.2956
lfingers 7.12502
lthumb 8.66283 49.0978
rfemur -12.2645 7.45943 23.6247
rtibia 34.1763
rfoot -22.0312 -20.2506
rtoes -36.1586
lfemur -11.3084 -13.7904 -19.6625
ltibia 30.1304
lfoot -20.4223 21.2135
ltoes -7.43992
506
root -7.39845 15.2541 -2.59352 7.29008 -78.4073 -8.92714
lowerback 10.2148 3.08556 -0.442455
upperback 8.42542 3.72674 -1.39576
thorax 3.1388 1.74091 -1.47706
lowerneck -8.30425 -0.906656 3.2765
upperneck 13.052 -2.87242 7.23081
head 5.38453 -0.819749 1.51161
rclavicle 7.51406e-014 -1.74931e-014
rhumerus -29.0334 48.1056 -102.181
rradius 69.1629
rwrist -65.4301
rhand -22.1707 -24.9852
rfingers 7.12502
rthumb 4.24392 -54.9227
lclavicle 7.51406e-014 -1.74931e-014
lhumerus -25.856 5.23677 75.3046
lradius 16.0096
lwrist -16.4813
lhand -17.3382 19.204
lfingers 7.12502
lthumb 8.90899 48.9959
rfemur -12.475 6.88113 23.5897
rtibia 34.6623
rfoot -22.8344 -20.9196
rtoes -34.9022
lfemur -10.8942 -13.9731 -19.8584
ltibia 29.7241
lfoot -20.7444 21.8069
ltoes -6.48417
507
root -7.40788 15.2629 -2.56641 7.73217 -78.9677 -9.3406
lowerback 10.0248 3.01402 -0.646336
upperback 8.38944 3.62284 -1.46707
thorax 3.19311 1.68129 -1.42142
lowerneck -8.59511 -0.727927 3.36028
upperneck 13.0775 -2.61218 6.92522
head 5.43083 -0.700183 1.42028
rclavicle -4.4329e-014 7.95139e-015
rhumerus -28.9206 47.9657 -101.897
rradius 68.4637
rwrist -63.9379
rhand -21.4119 -24.1568
rfingers 7.12502
rthumb 4.97663 -54.0784
lclavicle -4.4329e-014 7.95139e-015
lhumerus -26.4991 4.31864 75.1286
lradius 16.6554
lwrist -15.3923
lhand -17.1837 19.0609
lfingers 7.12502
lthumb 9.05804 48.8464
rfemur -12.5865 6.32613 23.597
rtibia 34.9154
rfoot -23.7062 -21.8156
rtoes -33.0137
lfemur -10.5416 -14.2296 -20.0214
ltibia 29.3776
lfoot -21.1138 22.4413
ltoes -5.53158
508
root -7.41895 15.2701 -2.54117 8.28331 -79.4814 -9.8503
lowerback 9.83143 2.97042 -0.773263
upperback 8.32658 3.56367 -1.53246
thorax 3.22683 1.64844 -1.4063
lowerneck -8.80872 -0.610284 3.44827
upperneck 13.0729 -2.43173 6.64052
head 5.45724 -0.621214 1.32951
rclavicle 4.69132e-014 -2.14687e-014
rhumerus -28.7931 47.6341 -101.542
rradius 67.6209
rwrist -62.3794
rhand -20.6483 -23.2401
rfingers 7.12502
rthumb 5.71389 -53.1431
lclavicle 4.69132e-014 -2.14687e-014
lhumerus -27.1745 2.49153 75.3572
lradius 17.75
lwrist -13.0944
lhand -17.1514 18.8203
lfingers 7.12502
lthumb 9.08922 48.6044
rfemur -12.5663 5.81456 23.6318
rtibia 34.8691
rfoot -24.5988 -22.8422
rtoes -30.7475
lfemur -10.2424 -14.5468 -20.1642
ltibia 29.0966
lfoot -21.5292 23.0882
ltoes -4.60123
509
root -7.43277 15.2757 -2.51812 8.89594 -79.9317 -10.404
lowerback 9.62013 2.96476 -0.821276
upperback 8.226 3.56328 -1.59587
thorax 3.23668 1.65004 -1.437
lowerneck -8.91508 -0.56517 3.51859
upperneck 13.0511 -2.34792 6.40752
head 5.46303 -0.590095 1.25105
rclavicle 2.84262e-014 2.62396e-014
rhumerus -28.6812 47.0735 -101.123
rradius 66.6602
rwrist -60.8459
rhand -19.9406 -22.3321
rfingers 7.12502
rthumb 6.39718 -52.2155
lclavicle 2.84262e-014 2.62396e-014
lhumerus -27.8517 0.230248 75.8007
lradius 19.1066
lwrist -10.3027
lhand -17.3028 18.4274
lfingers 7.12502
lthumb 8.94319 48.2179
rfemur -12.4078 5.37472 23.6817
rtibia 34.4869
rfoot -25.361 -23.9216
rtoes -28.2371
lfemur -9.99915 -14.8892 -20.2892
ltibia 28.8815
lfoot -21.979 23.7027
ltoes -3.71358
